<svg width="20" height="20" viewBox="0 0 20 20" fill="none" xmlns="http://www.w3.org/2000/svg">
<path d="M3.13087 0H9.39261C10.223 0 11.0193 0.332706 11.6065 0.924926C12.1936 1.51715 12.5235 2.32037 12.5235 3.15789V7.36842H11.4799V3.15789C11.4799 2.59954 11.26 2.06406 10.8685 1.66925C10.4771 1.27444 9.94618 1.05263 9.39261 1.05263H3.13087C2.5773 1.05263 2.0464 1.27444 1.65496 1.66925C1.26353 2.06406 1.04362 2.59954 1.04362 3.15789V16.8421C1.04362 17.4005 1.26353 17.9359 1.65496 18.3308C2.0464 18.7256 2.5773 18.9474 3.13087 18.9474H9.39261C9.94618 18.9474 10.4771 18.7256 10.8685 18.3308C11.26 17.9359 11.4799 17.4005 11.4799 16.8421V12.6316H12.5235V16.8421C12.5235 17.6796 12.1936 18.4829 11.6065 19.0751C11.0193 19.6673 10.223 20 9.39261 20H3.13087C2.30051 20 1.50416 19.6673 0.917011 19.0751C0.329859 18.4829 0 17.6796 0 16.8421V3.15789C0 2.32037 0.329859 1.51715 0.917011 0.924926C1.50416 0.332706 2.30051 0 3.13087 0V0ZM6.26174 9.47368H18.0025L14.6107 6.05263L15.3037 5.26316L20 10L15.3037 14.7368L14.6107 13.9474L18.0025 10.5263H6.26174V9.47368Z" fill="#ACB7EB"/>
</svg>
